<?xml version="1.0" encoding="utf-8"?>
<!-- Generator: Adobe Illustrator 15.0.2, SVG Export Plug-In . SVG Version: 6.00 Build 0)  -->
<!DOCTYPE svg PUBLIC "-//W3C//DTD SVG 1.1//EN" "http://www.w3.org/Graphics/SVG/1.1/DTD/svg11.dtd">
<svg version="1.1" id="Layer_1" xmlns="http://www.w3.org/2000/svg" xmlns:xlink="http://www.w3.org/1999/xlink" x="0px" y="0px"
	 width="612px" height="792px" viewBox="0 0 612 792" enable-background="new 0 0 612 792" xml:space="preserve">
<g>
	<path fill="#B0B934" d="M211.039,389.996c0,22.519-18.258,40.774-40.773,40.774c-22.52,0-40.774-18.256-40.774-40.774
		c0-22.514,18.254-40.769,40.774-40.769C192.78,349.228,211.039,367.482,211.039,389.996L211.039,389.996z M170.266,353.306
		c-20.265,0-36.695,16.426-36.695,36.69s16.43,36.7,36.695,36.7c20.264,0,36.69-16.436,36.69-36.7S190.53,353.306,170.266,353.306"
		/>
	<path fill="#B0B934" d="M186.963,373.117h-11.665l-0.033-16.11h-4.737c-2.28,4.356-8.571,7.592-16.175,8.029l-0.039,0.02v3.575
		h9.501v4.486h-10.449c-9.436,0-15.673,7.646-15.673,17.081c0,9.432,6.237,17.081,15.673,17.081h10.449v0.814
		c0,4.633-5.168,8.386-9.798,8.386v3.578h31.155v-3.578c-4.634,0-9.801-3.753-9.801-8.386v-0.814h11.591
		c9.435,0,15.672-7.649,15.672-17.081C202.635,380.763,196.398,373.117,186.963,373.117L186.963,373.117z M175.409,402.528h-0.048
		l-0.053-24.66h1.511c6.808,0,12.33,5.521,12.33,12.33c0,6.811-5.521,12.33-12.33,12.33H175.409L175.409,402.528z M163.713,377.868
		h0.049l0.054,24.66h-1.517c-6.808,0-12.325-5.52-12.325-12.326c0-6.813,5.517-12.334,12.325-12.334H163.713"/>
	<g>
		<path fill="#B0B934" d="M209.158,430.111c-3.725,0-6.786-3.009-6.786-6.821c0-3.797,3.061-6.82,6.786-6.82
			c3.72,0,6.785,3.023,6.785,6.82C215.943,427.103,212.878,430.111,209.158,430.111z M209.158,417.827
			c-2.898,0-5.229,2.417-5.229,5.463c0,3.043,2.331,5.501,5.229,5.501c2.896,0,5.242-2.458,5.242-5.501
			C214.4,420.244,212.055,417.827,209.158,417.827z M209.615,419.419c1.359,0,2.254,0.897,2.254,2.233
			c0,1.159-0.77,2.095-1.702,2.115c0.145,0.124,0.217,0.203,0.308,0.327c0.442,0.548,1.835,2.974,1.835,2.974h-1.815
			c-0.294-0.517-0.419-0.72-0.716-1.269c-0.751-1.372-0.991-1.74-1.265-1.869c-0.072-0.015-0.144-0.058-0.235-0.058v3.195h-1.504
			v-7.649H209.615z M208.278,422.719h0.509c0.664,0,0.956-0.072,1.158-0.252c0.183-0.189,0.293-0.457,0.293-0.77
			c0-0.482-0.183-0.812-0.549-0.939c-0.167-0.073-0.499-0.109-0.864-0.109h-0.548V422.719z"/>
	</g>
</g>
<g>
	<path fill="#59718B" d="M241.471,362.75h-23.004V350.41h60.984v12.341h-23.244v68.413h-14.737V362.75z"/>
	<path fill="#59718B" d="M343.427,428.887c-3.475,1.678-11.143,3.595-20.968,3.595c-25.64,0-41.215-16.056-41.215-40.736
		c0-26.599,18.571-42.653,43.252-42.653c9.705,0,16.534,2.037,19.529,3.594l-3.115,11.742c-3.834-1.677-9.226-3.115-15.815-3.115
		c-16.414,0-28.275,10.304-28.275,29.714c0,17.852,10.304,29.114,28.156,29.114c5.87,0,12.101-1.198,16.055-2.876L343.427,428.887z"
		/>
	<path fill="#59718B" d="M410.759,428.887c-3.475,1.678-11.143,3.595-20.968,3.595c-25.64,0-41.215-16.056-41.215-40.736
		c0-26.599,18.57-42.653,43.252-42.653c9.705,0,16.534,2.037,19.529,3.594l-3.115,11.742c-3.834-1.677-9.225-3.115-15.815-3.115
		c-16.414,0-28.275,10.304-28.275,29.714c0,17.852,10.304,29.114,28.156,29.114c5.87,0,12.101-1.198,16.055-2.876L410.759,428.887z"
		/>
	<path fill="#59718B" d="M478.09,428.887c-3.475,1.678-11.143,3.595-20.967,3.595c-25.641,0-41.216-16.056-41.216-40.736
		c0-26.599,18.571-42.653,43.252-42.653c9.705,0,16.534,2.037,19.529,3.594l-3.115,11.742c-3.834-1.677-9.226-3.115-15.814-3.115
		c-16.415,0-28.276,10.304-28.276,29.714c0,17.852,10.305,29.114,28.156,29.114c5.871,0,12.101-1.198,16.055-2.876L478.09,428.887z"
		/>
</g>
<g>
	<path fill="#59718B" d="M133.002,447.825h-3.009v-1.614h7.976v1.614h-3.04v8.948h-1.927V447.825z"/>
	<path fill="#59718B" d="M139.287,453.498c0.047,1.379,1.113,1.975,2.351,1.975c0.894,0,1.521-0.141,2.116-0.345l0.282,1.316
		c-0.658,0.282-1.567,0.485-2.664,0.485c-2.476,0-3.934-1.52-3.934-3.854c0-2.115,1.285-4.105,3.73-4.105
		c2.476,0,3.291,2.037,3.291,3.714c0,0.36-0.031,0.643-0.063,0.814H139.287z M142.64,452.15c0.016-0.705-0.297-1.864-1.583-1.864
		c-1.191,0-1.692,1.081-1.771,1.864H142.64z"/>
	<path fill="#59718B" d="M151.62,456.538c-0.408,0.188-1.207,0.392-2.163,0.392c-2.382,0-3.934-1.535-3.934-3.901
		c0-2.288,1.567-4.059,4.247-4.059c0.705,0,1.426,0.156,1.865,0.345l-0.345,1.457c-0.313-0.156-0.768-0.298-1.458-0.298
		c-1.473,0-2.351,1.081-2.335,2.477c0,1.566,1.019,2.46,2.335,2.46c0.658,0,1.144-0.142,1.52-0.298L151.62,456.538z"/>
	<path fill="#59718B" d="M153.046,445.647h1.928v4.528h0.031c0.235-0.36,0.564-0.658,0.956-0.861
		c0.392-0.22,0.846-0.345,1.332-0.345c1.3,0,2.664,0.861,2.664,3.307v4.497h-1.928v-4.294c0-1.097-0.407-1.943-1.473-1.943
		c-0.752,0-1.285,0.502-1.504,1.082c-0.063,0.172-0.078,0.376-0.078,0.579v4.576h-1.928V445.647z"/>
	<path fill="#59718B" d="M162.01,451.414c0-0.878-0.031-1.614-0.063-2.272h1.677l0.094,1.145h0.047
		c0.345-0.596,1.175-1.316,2.444-1.316c1.332,0,2.711,0.861,2.711,3.274v4.529h-1.928v-4.31c0-1.097-0.407-1.928-1.458-1.928
		c-0.768,0-1.3,0.549-1.504,1.129c-0.063,0.156-0.094,0.392-0.094,0.611v4.497h-1.928V451.414z"/>
	<path fill="#59718B" d="M173.027,447.011c0,0.563-0.423,1.034-1.097,1.034c-0.643,0-1.065-0.471-1.065-1.034
		c0-0.596,0.438-1.05,1.081-1.05C172.604,445.961,173.011,446.415,173.027,447.011z M170.974,456.773v-7.632h1.928v7.632H170.974z"
		/>
	<path fill="#59718B" d="M180.597,456.538c-0.408,0.188-1.207,0.392-2.163,0.392c-2.382,0-3.934-1.535-3.934-3.901
		c0-2.288,1.567-4.059,4.247-4.059c0.705,0,1.426,0.156,1.865,0.345l-0.345,1.457c-0.313-0.156-0.768-0.298-1.458-0.298
		c-1.473,0-2.351,1.081-2.335,2.477c0,1.566,1.019,2.46,2.335,2.46c0.658,0,1.144-0.142,1.52-0.298L180.597,456.538z"/>
	<path fill="#59718B" d="M187.946,454.94c0,0.689,0.031,1.363,0.125,1.833h-1.739l-0.141-0.847h-0.047
		c-0.455,0.596-1.254,1.02-2.257,1.02c-1.536,0-2.397-1.113-2.397-2.272c0-1.912,1.708-2.899,4.529-2.884v-0.125
		c0-0.502-0.204-1.332-1.551-1.332c-0.752,0-1.536,0.234-2.053,0.563l-0.376-1.253c0.564-0.345,1.552-0.674,2.758-0.674
		c2.444,0,3.15,1.551,3.15,3.228V454.94z M186.065,453.044c-1.363-0.016-2.664,0.267-2.664,1.426c0,0.752,0.486,1.097,1.097,1.097
		c0.784,0,1.332-0.501,1.52-1.05c0.047-0.141,0.047-0.282,0.047-0.423V453.044z"/>
	<path fill="#59718B" d="M189.984,445.647h1.928v11.126h-1.928V445.647z"/>
	<path fill="#59718B" d="M204.902,456.476c-0.455,0.22-1.458,0.471-2.742,0.471c-3.354,0-5.391-2.101-5.391-5.328
		c0-3.479,2.429-5.579,5.657-5.579c1.27,0,2.163,0.267,2.554,0.47l-0.407,1.536c-0.501-0.22-1.207-0.407-2.068-0.407
		c-2.147,0-3.699,1.348-3.699,3.886c0,2.335,1.348,3.809,3.683,3.809c0.768,0,1.583-0.157,2.1-0.376L204.902,456.476z"/>
	<path fill="#59718B" d="M213.475,452.887c0,2.806-1.975,4.06-3.918,4.06c-2.147,0-3.824-1.474-3.824-3.934
		c0-2.508,1.646-4.043,3.949-4.043C211.955,448.97,213.475,450.567,213.475,452.887z M207.724,452.966
		c0,1.473,0.737,2.585,1.896,2.585c1.097,0,1.865-1.065,1.865-2.616c0-1.191-0.533-2.57-1.849-2.57
		C208.272,450.364,207.724,451.696,207.724,452.966z"/>
	<path fill="#59718B" d="M215.058,451.414c0-0.878-0.031-1.614-0.063-2.272h1.646l0.094,1.129h0.047
		c0.361-0.596,1.05-1.301,2.351-1.301c1.003,0,1.786,0.563,2.115,1.41h0.031c0.267-0.423,0.58-0.736,0.925-0.956
		c0.439-0.298,0.924-0.454,1.567-0.454c1.254,0,2.539,0.861,2.539,3.307v4.497h-1.881v-4.216c0-1.269-0.438-2.021-1.363-2.021
		c-0.658,0-1.144,0.471-1.348,1.019c-0.063,0.173-0.094,0.424-0.094,0.643v4.576h-1.88v-4.419c0-1.065-0.423-1.818-1.316-1.818
		c-0.721,0-1.207,0.564-1.395,1.082c-0.063,0.203-0.094,0.423-0.094,0.643v4.513h-1.88V451.414z"/>
	<path fill="#59718B" d="M228.348,451.414c0-0.878-0.031-1.614-0.063-2.272h1.646l0.094,1.129h0.047
		c0.36-0.596,1.05-1.301,2.351-1.301c1.003,0,1.786,0.563,2.115,1.41h0.031c0.267-0.423,0.58-0.736,0.925-0.956
		c0.439-0.298,0.924-0.454,1.567-0.454c1.254,0,2.539,0.861,2.539,3.307v4.497h-1.88v-4.216c0-1.269-0.438-2.021-1.363-2.021
		c-0.658,0-1.144,0.471-1.348,1.019c-0.063,0.173-0.094,0.424-0.094,0.643v4.576h-1.88v-4.419c0-1.065-0.423-1.818-1.316-1.818
		c-0.721,0-1.207,0.564-1.395,1.082c-0.063,0.203-0.094,0.423-0.094,0.643v4.513h-1.88V451.414z"/>
	<path fill="#59718B" d="M243.69,447.011c0,0.563-0.423,1.034-1.097,1.034c-0.643,0-1.065-0.471-1.065-1.034
		c0-0.596,0.438-1.05,1.081-1.05C243.267,445.961,243.674,446.415,243.69,447.011z M241.637,456.773v-7.632h1.928v7.632H241.637z"/>
	<path fill="#59718B" d="M247.858,447.183v1.959h1.833v1.441h-1.833v3.37c0,0.939,0.251,1.41,0.987,1.41
		c0.345,0,0.533-0.016,0.752-0.078l0.031,1.457c-0.282,0.109-0.799,0.204-1.395,0.204c-0.721,0-1.301-0.235-1.661-0.627
		c-0.423-0.439-0.611-1.145-0.611-2.147v-3.589h-1.081v-1.441h1.081v-1.426L247.858,447.183z"/>
	<path fill="#59718B" d="M253.359,447.183v1.959h1.833v1.441h-1.833v3.37c0,0.939,0.251,1.41,0.987,1.41
		c0.345,0,0.533-0.016,0.752-0.078l0.031,1.457c-0.282,0.109-0.799,0.204-1.395,0.204c-0.721,0-1.301-0.235-1.661-0.627
		c-0.423-0.439-0.611-1.145-0.611-2.147v-3.589h-1.081v-1.441h1.081v-1.426L253.359,447.183z"/>
	<path fill="#59718B" d="M257.92,453.498c0.047,1.379,1.113,1.975,2.351,1.975c0.894,0,1.52-0.141,2.116-0.345l0.282,1.316
		c-0.658,0.282-1.567,0.485-2.664,0.485c-2.476,0-3.934-1.52-3.934-3.854c0-2.115,1.285-4.105,3.73-4.105
		c2.476,0,3.291,2.037,3.291,3.714c0,0.36-0.031,0.643-0.063,0.814H257.92z M261.273,452.15c0.016-0.705-0.297-1.864-1.583-1.864
		c-1.191,0-1.692,1.081-1.771,1.864H261.273z"/>
	<path fill="#59718B" d="M266.006,453.498c0.047,1.379,1.113,1.975,2.351,1.975c0.894,0,1.521-0.141,2.116-0.345l0.282,1.316
		c-0.658,0.282-1.567,0.485-2.664,0.485c-2.476,0-3.934-1.52-3.934-3.854c0-2.115,1.285-4.105,3.73-4.105
		c2.476,0,3.291,2.037,3.291,3.714c0,0.36-0.031,0.643-0.063,0.814H266.006z M269.36,452.15c0.016-0.705-0.297-1.864-1.583-1.864
		c-1.191,0-1.692,1.081-1.771,1.864H269.36z"/>
	<path fill="#59718B" d="M283.229,452.887c0,2.806-1.975,4.06-3.918,4.06c-2.147,0-3.824-1.474-3.824-3.934
		c0-2.508,1.646-4.043,3.949-4.043C281.708,448.97,283.229,450.567,283.229,452.887z M277.478,452.966
		c0,1.473,0.737,2.585,1.896,2.585c1.097,0,1.865-1.065,1.865-2.616c0-1.191-0.533-2.57-1.849-2.57
		C278.026,450.364,277.478,451.696,277.478,452.966z"/>
	<path fill="#59718B" d="M284.812,451.414c0-0.878-0.031-1.614-0.063-2.272h1.677l0.094,1.145h0.047
		c0.345-0.596,1.175-1.316,2.444-1.316c1.332,0,2.711,0.861,2.711,3.274v4.529h-1.928v-4.31c0-1.097-0.407-1.928-1.458-1.928
		c-0.768,0-1.3,0.549-1.504,1.129c-0.063,0.156-0.094,0.392-0.094,0.611v4.497h-1.928V451.414z"/>
	<path fill="#59718B" d="M304.667,456.476c-0.455,0.22-1.458,0.471-2.742,0.471c-3.354,0-5.391-2.101-5.391-5.328
		c0-3.479,2.429-5.579,5.657-5.579c1.27,0,2.163,0.267,2.554,0.47l-0.407,1.536c-0.501-0.22-1.207-0.407-2.068-0.407
		c-2.147,0-3.699,1.348-3.699,3.886c0,2.335,1.348,3.809,3.683,3.809c0.768,0,1.583-0.157,2.1-0.376L304.667,456.476z"/>
	<path fill="#59718B" d="M313.24,452.887c0,2.806-1.975,4.06-3.918,4.06c-2.146,0-3.824-1.474-3.824-3.934
		c0-2.508,1.646-4.043,3.949-4.043C311.721,448.97,313.24,450.567,313.24,452.887z M307.488,452.966
		c0,1.473,0.737,2.585,1.896,2.585c1.098,0,1.865-1.065,1.865-2.616c0-1.191-0.533-2.57-1.85-2.57
		C308.037,450.364,307.488,451.696,307.488,452.966z"/>
	<path fill="#59718B" d="M314.823,451.414c0-0.878-0.031-1.614-0.063-2.272h1.646l0.094,1.129h0.047
		c0.361-0.596,1.051-1.301,2.352-1.301c1.002,0,1.785,0.563,2.115,1.41h0.031c0.266-0.423,0.58-0.736,0.924-0.956
		c0.439-0.298,0.925-0.454,1.567-0.454c1.254,0,2.538,0.861,2.538,3.307v4.497h-1.88v-4.216c0-1.269-0.438-2.021-1.363-2.021
		c-0.658,0-1.144,0.471-1.348,1.019c-0.063,0.173-0.095,0.424-0.095,0.643v4.576h-1.88v-4.419c0-1.065-0.423-1.818-1.316-1.818
		c-0.721,0-1.206,0.564-1.395,1.082c-0.063,0.203-0.095,0.423-0.095,0.643v4.513h-1.88V451.414z"/>
	<path fill="#59718B" d="M328.113,451.681c0-1.003-0.031-1.818-0.063-2.539h1.691l0.094,1.176h0.032
		c0.563-0.862,1.458-1.348,2.616-1.348c1.756,0,3.213,1.504,3.213,3.886c0,2.759-1.738,4.091-3.479,4.091
		c-0.955,0-1.756-0.408-2.146-1.02h-0.031v3.949h-1.928V451.681z M330.041,453.576c0,0.188,0.016,0.361,0.047,0.533
		c0.203,0.783,0.877,1.348,1.707,1.348c1.223,0,1.943-1.019,1.943-2.522c0-1.349-0.658-2.445-1.896-2.445
		c-0.799,0-1.535,0.58-1.738,1.426c-0.031,0.157-0.063,0.329-0.063,0.486V453.576z"/>
	<path fill="#59718B" d="M344.113,454.485c0,0.909,0.031,1.661,0.063,2.288H342.5l-0.096-1.144h-0.047
		c-0.328,0.532-1.08,1.316-2.459,1.316s-2.648-0.831-2.648-3.322v-4.482h1.928v4.153c0,1.269,0.406,2.084,1.426,2.084
		c0.783,0,1.285-0.533,1.473-1.034c0.078-0.157,0.109-0.376,0.109-0.596v-4.607h1.928V454.485z"/>
	<path fill="#59718B" d="M348.408,447.183v1.959h1.832v1.441h-1.832v3.37c0,0.939,0.25,1.41,0.986,1.41
		c0.346,0,0.533-0.016,0.752-0.078l0.031,1.457c-0.281,0.109-0.799,0.204-1.395,0.204c-0.721,0-1.301-0.235-1.66-0.627
		c-0.424-0.439-0.611-1.145-0.611-2.147v-3.589h-1.082v-1.441h1.082v-1.426L348.408,447.183z"/>
	<path fill="#59718B" d="M352.967,453.498c0.047,1.379,1.113,1.975,2.352,1.975c0.893,0,1.52-0.141,2.115-0.345l0.281,1.316
		c-0.658,0.282-1.566,0.485-2.664,0.485c-2.475,0-3.932-1.52-3.932-3.854c0-2.115,1.283-4.105,3.729-4.105
		c2.477,0,3.291,2.037,3.291,3.714c0,0.36-0.031,0.643-0.063,0.814H352.967z M356.32,452.15c0.016-0.705-0.297-1.864-1.582-1.864
		c-1.191,0-1.693,1.081-1.771,1.864H356.32z"/>
	<path fill="#59718B" d="M359.691,451.603c0-1.035-0.016-1.787-0.063-2.461h1.66l0.078,1.441h0.047
		c0.377-1.065,1.27-1.613,2.102-1.613c0.188,0,0.297,0.016,0.453,0.047v1.802c-0.172-0.031-0.344-0.047-0.58-0.047
		c-0.908,0-1.551,0.58-1.723,1.457c-0.031,0.173-0.047,0.377-0.047,0.58v3.965h-1.928V451.603z"/>
	<path fill="#59718B" d="M376.16,456.476c-0.453,0.22-1.457,0.471-2.742,0.471c-3.354,0-5.391-2.101-5.391-5.328
		c0-3.479,2.43-5.579,5.658-5.579c1.268,0,2.162,0.267,2.553,0.47l-0.406,1.536c-0.502-0.22-1.207-0.407-2.068-0.407
		c-2.148,0-3.699,1.348-3.699,3.886c0,2.335,1.348,3.809,3.684,3.809c0.768,0,1.582-0.157,2.1-0.376L376.16,456.476z"/>
	<path fill="#59718B" d="M384.734,452.887c0,2.806-1.975,4.06-3.918,4.06c-2.146,0-3.824-1.474-3.824-3.934
		c0-2.508,1.646-4.043,3.949-4.043C383.213,448.97,384.734,450.567,384.734,452.887z M378.982,452.966
		c0,1.473,0.736,2.585,1.896,2.585c1.098,0,1.865-1.065,1.865-2.616c0-1.191-0.533-2.57-1.85-2.57
		C379.531,450.364,378.982,451.696,378.982,452.966z"/>
	<path fill="#59718B" d="M386.316,451.414c0-0.878-0.031-1.614-0.063-2.272h1.646l0.094,1.129h0.047
		c0.359-0.596,1.049-1.301,2.35-1.301c1.004,0,1.787,0.563,2.117,1.41h0.031c0.266-0.423,0.578-0.736,0.924-0.956
		c0.439-0.298,0.924-0.454,1.566-0.454c1.254,0,2.539,0.861,2.539,3.307v4.497h-1.881v-4.216c0-1.269-0.438-2.021-1.363-2.021
		c-0.658,0-1.143,0.471-1.348,1.019c-0.063,0.173-0.094,0.424-0.094,0.643v4.576h-1.881v-4.419c0-1.065-0.422-1.818-1.316-1.818
		c-0.721,0-1.205,0.564-1.395,1.082c-0.063,0.203-0.094,0.423-0.094,0.643v4.513h-1.881V451.414z"/>
	<path fill="#59718B" d="M399.605,451.414c0-0.878-0.031-1.614-0.063-2.272h1.646l0.094,1.129h0.047
		c0.359-0.596,1.049-1.301,2.35-1.301c1.004,0,1.787,0.563,2.117,1.41h0.031c0.266-0.423,0.578-0.736,0.924-0.956
		c0.439-0.298,0.924-0.454,1.566-0.454c1.254,0,2.539,0.861,2.539,3.307v4.497h-1.881v-4.216c0-1.269-0.438-2.021-1.363-2.021
		c-0.658,0-1.143,0.471-1.348,1.019c-0.063,0.173-0.094,0.424-0.094,0.643v4.576h-1.881v-4.419c0-1.065-0.422-1.818-1.316-1.818
		c-0.721,0-1.205,0.564-1.395,1.082c-0.063,0.203-0.094,0.423-0.094,0.643v4.513h-1.881V451.414z"/>
	<path fill="#59718B" d="M419.729,454.485c0,0.909,0.031,1.661,0.063,2.288h-1.678l-0.094-1.144h-0.047
		c-0.33,0.532-1.082,1.316-2.461,1.316s-2.648-0.831-2.648-3.322v-4.482h1.928v4.153c0,1.269,0.408,2.084,1.426,2.084
		c0.783,0,1.285-0.533,1.473-1.034c0.08-0.157,0.111-0.376,0.111-0.596v-4.607h1.928V454.485z"/>
	<path fill="#59718B" d="M421.813,451.414c0-0.878-0.031-1.614-0.063-2.272h1.676l0.094,1.145h0.047
		c0.346-0.596,1.176-1.316,2.445-1.316c1.332,0,2.711,0.861,2.711,3.274v4.529h-1.928v-4.31c0-1.097-0.406-1.928-1.457-1.928
		c-0.768,0-1.301,0.549-1.504,1.129c-0.063,0.156-0.094,0.392-0.094,0.611v4.497h-1.928V451.414z"/>
	<path fill="#59718B" d="M432.83,447.011c0,0.563-0.424,1.034-1.098,1.034c-0.643,0-1.064-0.471-1.064-1.034
		c0-0.596,0.438-1.05,1.08-1.05C432.406,445.961,432.814,446.415,432.83,447.011z M430.777,456.773v-7.632h1.928v7.632H430.777z"/>
	<path fill="#59718B" d="M440.398,456.538c-0.406,0.188-1.207,0.392-2.162,0.392c-2.383,0-3.934-1.535-3.934-3.901
		c0-2.288,1.566-4.059,4.246-4.059c0.705,0,1.428,0.156,1.865,0.345l-0.344,1.457c-0.314-0.156-0.768-0.298-1.457-0.298
		c-1.475,0-2.352,1.081-2.336,2.477c0,1.566,1.02,2.46,2.336,2.46c0.658,0,1.143-0.142,1.52-0.298L440.398,456.538z"/>
	<path fill="#59718B" d="M447.748,454.94c0,0.689,0.031,1.363,0.125,1.833h-1.738l-0.141-0.847h-0.049
		c-0.453,0.596-1.252,1.02-2.256,1.02c-1.535,0-2.396-1.113-2.396-2.272c0-1.912,1.707-2.899,4.527-2.884v-0.125
		c0-0.502-0.203-1.332-1.551-1.332c-0.752,0-1.535,0.234-2.053,0.563l-0.377-1.253c0.564-0.345,1.553-0.674,2.758-0.674
		c2.445,0,3.15,1.551,3.15,3.228V454.94z M445.867,453.044c-1.363-0.016-2.664,0.267-2.664,1.426c0,0.752,0.486,1.097,1.098,1.097
		c0.783,0,1.332-0.501,1.52-1.05c0.047-0.141,0.047-0.282,0.047-0.423V453.044z"/>
	<path fill="#59718B" d="M451.902,447.183v1.959h1.832v1.441h-1.832v3.37c0,0.939,0.25,1.41,0.986,1.41
		c0.346,0,0.533-0.016,0.752-0.078l0.031,1.457c-0.281,0.109-0.799,0.204-1.395,0.204c-0.721,0-1.301-0.235-1.66-0.627
		c-0.424-0.439-0.611-1.145-0.611-2.147v-3.589h-1.082v-1.441h1.082v-1.426L451.902,447.183z"/>
	<path fill="#59718B" d="M457.246,447.011c0,0.563-0.424,1.034-1.098,1.034c-0.643,0-1.064-0.471-1.064-1.034
		c0-0.596,0.438-1.05,1.08-1.05C456.822,445.961,457.23,446.415,457.246,447.011z M455.193,456.773v-7.632h1.928v7.632H455.193z"/>
	<path fill="#59718B" d="M466.461,452.887c0,2.806-1.975,4.06-3.918,4.06c-2.146,0-3.824-1.474-3.824-3.934
		c0-2.508,1.646-4.043,3.949-4.043C464.939,448.97,466.461,450.567,466.461,452.887z M460.709,452.966
		c0,1.473,0.736,2.585,1.896,2.585c1.098,0,1.865-1.065,1.865-2.616c0-1.191-0.533-2.57-1.85-2.57
		C461.258,450.364,460.709,451.696,460.709,452.966z"/>
	<path fill="#59718B" d="M468.043,451.414c0-0.878-0.031-1.614-0.063-2.272h1.678l0.094,1.145h0.047
		c0.344-0.596,1.176-1.316,2.445-1.316c1.332,0,2.711,0.861,2.711,3.274v4.529h-1.928v-4.31c0-1.097-0.408-1.928-1.457-1.928
		c-0.77,0-1.301,0.549-1.506,1.129c-0.063,0.156-0.094,0.392-0.094,0.611v4.497h-1.928V451.414z"/>
	<path fill="#59718B" d="M476.93,454.987c0.422,0.266,1.254,0.563,1.943,0.563c0.846,0,1.221-0.36,1.221-0.861
		c0-0.518-0.313-0.769-1.252-1.113c-1.49-0.501-2.102-1.315-2.102-2.225c0-1.348,1.113-2.382,2.885-2.382
		c0.846,0,1.582,0.203,2.037,0.454l-0.393,1.348c-0.313-0.188-0.939-0.438-1.613-0.438c-0.689,0-1.066,0.345-1.066,0.814
		c0,0.486,0.361,0.705,1.332,1.065c1.395,0.486,2.021,1.191,2.037,2.319c0,1.395-1.08,2.397-3.102,2.397
		c-0.926,0-1.756-0.219-2.32-0.532L476.93,454.987z"/>
</g>
</svg>
